<svg width="40" height="34" viewBox="0 0 42 34" fill="none" xmlns="http://www.w3.org/2000/svg">
<path d="M37.6668 29.5007H33.5001V11.2715L21.0001 19.084L8.50008 11.2715V29.5007H4.33342V4.50065H6.83342L21.0001 13.3548L35.1667 4.50065H37.6668M37.6668 0.333984H4.33342C2.02091 0.333984 0.166748 2.18815 0.166748 4.50065V29.5007C0.166748 30.6057 0.605735 31.6655 1.38714 32.4469C2.16854 33.2283 3.22835 33.6673 4.33342 33.6673H37.6668C38.7718 33.6673 39.8316 33.2283 40.613 32.4469C41.3944 31.6655 41.8334 30.6057 41.8334 29.5007V4.50065C41.8334 3.39558 41.3944 2.33577 40.613 1.55437C39.8316 0.772971 38.7718 0.333984 37.6668 0.333984Z" fill="#1D202C"/>
</svg>
