<svg width="42" height="34" viewBox="0 0 50 50" fill="none" xmlns="http://www.w3.org/2000/svg">
<path d="M14.5 0.000488281H35.5C43.5 0.000488281 50 6.50049 50 14.5005V35.5005C50 39.3461 48.4723 43.0343 45.7531 45.7535C43.0338 48.4728 39.3456 50.0005 35.5 50.0005H14.5C6.5 50.0005 0 43.5005 0 35.5005V14.5005C0 10.6548 1.52767 6.96672 4.24695 4.24744C6.96623 1.52816 10.6544 0.000488281 14.5 0.000488281ZM14 5.00049C11.6131 5.00049 9.32387 5.9487 7.63604 7.63653C5.94821 9.32436 5 11.6135 5 14.0005V36.0005C5 40.9755 9.025 45.0005 14 45.0005H36C38.3869 45.0005 40.6761 44.0523 42.364 42.3645C44.0518 40.6766 45 38.3874 45 36.0005V14.0005C45 9.02549 40.975 5.00049 36 5.00049H14ZM38.125 8.75049C38.9538 8.75049 39.7487 9.07973 40.3347 9.66578C40.9208 10.2518 41.25 11.0467 41.25 11.8755C41.25 12.7043 40.9208 13.4991 40.3347 14.0852C39.7487 14.6712 38.9538 15.0005 38.125 15.0005C37.2962 15.0005 36.5013 14.6712 35.9153 14.0852C35.3292 13.4991 35 12.7043 35 11.8755C35 11.0467 35.3292 10.2518 35.9153 9.66578C36.5013 9.07973 37.2962 8.75049 38.125 8.75049ZM25 12.5005C28.3152 12.5005 31.4946 13.8174 33.8388 16.1617C36.183 18.5059 37.5 21.6853 37.5 25.0005C37.5 28.3157 36.183 31.4951 33.8388 33.8393C31.4946 36.1835 28.3152 37.5005 25 37.5005C21.6848 37.5005 18.5054 36.1835 16.1612 33.8393C13.817 31.4951 12.5 28.3157 12.5 25.0005C12.5 21.6853 13.817 18.5059 16.1612 16.1617C18.5054 13.8174 21.6848 12.5005 25 12.5005ZM25 17.5005C23.0109 17.5005 21.1032 18.2907 19.6967 19.6972C18.2902 21.1037 17.5 23.0114 17.5 25.0005C17.5 26.9896 18.2902 28.8973 19.6967 30.3038C21.1032 31.7103 23.0109 32.5005 25 32.5005C26.9891 32.5005 28.8968 31.7103 30.3033 30.3038C31.7098 28.8973 32.5 26.9896 32.5 25.0005C32.5 23.0114 31.7098 21.1037 30.3033 19.6972C28.8968 18.2907 26.9891 17.5005 25 17.5005Z" fill="#1D202C"/>
</svg>
