<svg width="50" height="50" viewBox="0 0 50 50" fill="none" xmlns="http://www.w3.org/2000/svg">
<path d="M25.0001 4.16699C20.8796 4.16699 16.8517 5.38885 13.4257 7.67804C9.99966 9.96724 7.3294 13.221 5.75257 17.0278C4.17574 20.8346 3.76317 25.0234 4.56703 29.0647C5.37089 33.106 7.35508 36.8181 10.2687 39.7317C13.1823 42.6453 16.8944 44.6295 20.9357 45.4334C24.977 46.2372 29.1658 45.8246 32.9726 44.2478C36.7794 42.671 40.0331 40.0007 42.3223 36.5747C44.6115 33.1487 45.8334 29.1208 45.8334 25.0003C45.8334 22.2645 45.2945 19.5554 44.2476 17.0278C43.2006 14.5001 41.666 12.2035 39.7315 10.2689C37.7969 8.33438 35.5003 6.79981 32.9726 5.75284C30.445 4.70586 27.7359 4.16699 25.0001 4.16699ZM25.0001 41.667C21.7037 41.667 18.4814 40.6895 15.7406 38.8582C12.9997 37.0268 10.8635 34.4238 9.60207 31.3784C8.34061 28.333 8.01055 24.9818 8.65364 21.7488C9.29673 18.5158 10.8841 15.5461 13.2149 13.2152C15.5458 10.8843 18.5155 9.29699 21.7486 8.65391C24.9816 8.01082 28.3327 8.34087 31.3781 9.60233C34.4236 10.8638 37.0265 13 38.8579 15.7408C40.6892 18.4816 41.6667 21.704 41.6667 25.0003C41.6667 29.4206 39.9108 33.6598 36.7852 36.7854C33.6596 39.9111 29.4203 41.667 25.0001 41.667Z" fill="#95C697"/>
<path d="M31.25 22.917H27.0834V18.7503C27.0834 18.1978 26.8639 17.6679 26.4732 17.2772C26.0825 16.8865 25.5526 16.667 25 16.667C24.4475 16.667 23.9176 16.8865 23.5269 17.2772C23.1362 17.6679 22.9167 18.1978 22.9167 18.7503V22.917H18.75C18.1975 22.917 17.6676 23.1365 17.2769 23.5272C16.8862 23.9179 16.6667 24.4478 16.6667 25.0003C16.6667 25.5529 16.8862 26.0828 17.2769 26.4735C17.6676 26.8642 18.1975 27.0837 18.75 27.0837H22.9167V31.2503C22.9167 31.8029 23.1362 32.3328 23.5269 32.7235C23.9176 33.1142 24.4475 33.3337 25 33.3337C25.5526 33.3337 26.0825 33.1142 26.4732 32.7235C26.8639 32.3328 27.0834 31.8029 27.0834 31.2503V27.0837H31.25C31.8026 27.0837 32.3325 26.8642 32.7232 26.4735C33.1139 26.0828 33.3334 25.5529 33.3334 25.0003C33.3334 24.4478 33.1139 23.9179 32.7232 23.5272C32.3325 23.1365 31.8026 22.917 31.25 22.917Z" fill="#95C697"/>
</svg>
